<?xml version="1.0" encoding="utf-8"?>
<!-- Generator: Adobe Illustrator 18.1.1, SVG Export Plug-In . SVG Version: 6.00 Build 0)  -->
<!DOCTYPE svg PUBLIC "-//W3C//DTD SVG 1.1//EN" "http://www.w3.org/Graphics/SVG/1.1/DTD/svg11.dtd">
<svg version="1.1" id="Ebene_1" xmlns="http://www.w3.org/2000/svg" xmlns:xlink="http://www.w3.org/1999/xlink" x="0px" y="0px"
	 viewBox="0 0 50 59.331" enable-background="new 0 0 50 59.331" xml:space="preserve" width="50" height="60">
<g id="wmf-logo.svg">
	<path d="M43.051,40.357h5.155v4.125h-5.155v14.849h-8.249V34.583l4.762-8.248h9.259v8.248h-5.772V40.357L43.051,40.357z M9.525,0
		l10.117,17.532l7.74-13.405l7.738,13.405L45.238,0H50L32.741,29.905l-7.739-13.404l-7.741,13.404L0,0H9.525L9.525,0z M7.334,37.452
		v21.878H3.209V26.334h7.227l6.825,11.821l7.738-13.406l5.677,9.833v24.748h-8.248V37.452L14.88,50.527L7.334,37.452L7.334,37.452z"
		/>
</g>
<g>
</g>
<g>
</g>
<g>
</g>
<g>
</g>
<g>
</g>
<g>
</g>
<g>
</g>
<g>
</g>
<g>
</g>
<g>
</g>
<g>
</g>
<g>
</g>
<g>
</g>
<g>
</g>
<g>
</g>
</svg>
